<svg xmlns="http://www.w3.org/2000/svg" x="0px" y="0px" width="24px" height="24px">
  <path d="M13.09,1.3l7.632,4.406c0.692,0.4,1.09,1.088,1.09,1.889v8.811	c0,0.801-0.397,1.488-1.09,1.889l-7.632,4.405c-0.693,0.401-1.486,0.401-2.18,0l-7.632-4.405c-0.692-0.4-1.09-1.088-1.09-1.889	v-1.578l4.006,1.647c0.19,0.852,0.779,1.601,1.647,1.958c1.412,0.58,3.027-0.094,3.608-1.506c0.157-0.383,0.223-0.781,0.205-1.17	l3.618-2.465c2.102,0,3.805-1.703,3.805-3.804c0-2.102-1.703-3.805-3.805-3.805c-2.101,0-3.805,1.703-3.805,3.805l-2.46,3.625	c-0.574-0.023-1.138,0.134-1.612,0.438l-5.208-2.141V7.595c0-0.801,0.397-1.488,1.09-1.889L10.91,1.3	C11.604,0.899,12.396,0.899,13.09,1.3L13.09,1.3z M9.709,13.892c-0.518-0.213-1.07-0.208-1.557-0.029l1.342,0.553	c0.808,0.332,1.192,1.254,0.86,2.062c-0.332,0.807-1.255,1.192-2.062,0.86l-1.342-0.552c0.22,0.47,0.609,0.862,1.127,1.074	c1.096,0.45,2.349-0.072,2.799-1.168C11.328,15.596,10.805,14.343,9.709,13.892L9.709,13.892z M15.273,6.954	c-1.399,0-2.533,1.135-2.533,2.534s1.134,2.533,2.533,2.533s2.533-1.134,2.533-2.533S16.673,6.954,15.273,6.954L15.273,6.954z M15.273,7.581c-1.053,0-1.906,0.854-1.906,1.907c0,1.053,0.854,1.906,1.906,1.906s1.906-0.854,1.906-1.906	C17.18,8.435,16.326,7.581,15.273,7.581z" fill-rule="evenodd" clip-rule="evenodd"/>
</svg>
